PathFileType	4	(X/Y/Z)	E:\Marcel_BSc\Ayumi_22_01_2025\22-01-2025\sumo_dl_0.trc
DataRate	CameraRate	NumFrames	NumMarkers	Units	OrigDataRate	OrigDataStartFrame	OrigNumFrames
200.0	200.0	4	48	mm	200.0	1292	2582	
Frame#	Time	RUFIN			FHD			LBHD			RBHD			RBAR			LBAR			RSACR			LSACR			LASI			USACR			LTHI2			C7			CLAV			T10			RSHO			LSHO			LTHI1			LTHI3			LTIB1			LTIB2			LTIB3			LMMAL			LLMAL			LHEE			LMT1			LMT5			LMT3			RTHI1			RTHI2			RTHI3			RTIB1			RTIB3			RTIB2			RLMAL			RMMAL			RHEE			RMT5			RMT1			RMT3			LDUPA			LMUPA			LUUPA			LRAD			RRAD			RUL			RMUPA			RDUPA			RUUPA			
		X1	Y1	Z1	X2	Y2	Z2	X3	Y3	Z3	X4	Y4	Z4	X5	Y5	Z5	X6	Y6	Z6	X7	Y7	Z7	X8	Y8	Z8	X9	Y9	Z9	X10	Y10	Z10	X11	Y11	Z11	X12	Y12	Z12	X13	Y13	Z13	X14	Y14	Z14	X15	Y15	Z15	X16	Y16	Z16	X17	Y17	Z17	X18	Y18	Z18	X19	Y19	Z19	X20	Y20	Z20	X21	Y21	Z21	X22	Y22	Z22	X23	Y23	Z23	X24	Y24	Z24	X25	Y25	Z25	X26	Y26	Z26	X27	Y27	Z27	X28	Y28	Z28	X29	Y29	Z29	X30	Y30	Z30	X31	Y31	Z31	X32	Y32	Z32	X33	Y33	Z33	X34	Y34	Z34	X35	Y35	Z35	X36	Y36	Z36	X37	Y37	Z37	X38	Y38	Z38	X39	Y39	Z39	X40	Y40	Z40	X41	Y41	Z41	X42	Y42	Z42	X43	Y43	Z43	X44	Y44	Z44	X45	Y45	Z45	X46	Y46	Z46	X47	Y47	Z47	X48	Y48	Z48	
1292	6.45	169.54953	620.95667	-1170.1271	129.99417	1500.1285	-964.04932	145.82851	1483.4779	-903.49078	173.82204	1473.14	-1034.7343	197.90392	641.62573	-2063.8828	234.34888	616.33441	156.37686	428.03162	851.08698	-1013.2724	429.84912	854.99951	-939.92041				426.25284	864.86847	-977.08722	318.28979	520.3241	-688.10577	335.17001	1299.6727	-964.24866	204.09717	1210.4656	-962.83282	407.70447	1036.4799	-976.11926	211.98019	1227.6251	-1126.9974	251.43639	1228.5449	-790.10394	353.12042	567.85022	-721.06122	358.01245	502.79504	-713.03333	326.23697	238.1207	-558.46637	365.18011	218.05862	-583.31317	334.84717	174.4407	-544.2641	272.21753	62.472324	-555.10089	328.16733	70.12101	-511.41013	337.5043	29.626886	-555.8111	184.82629	44.474205	-429.59369	251.20854	26.44397	-384.15799	205.45973	39.922531	-400.6814	353.02362	567.61047	-1212.8599	317.93716	521.76373	-1244.4326	360.5322	503.39978	-1222.9215	333.17032	267.97565	-1357.3688	338.54309	206.28699	-1370.9478	371.08191	247.23402	-1333.5574	323.33057	68.382126	-1416.3101	253.84554	64.690102	-1385.5417	327.0083	28.691971	-1370.2109	252.978	27.740856	-1546.5549	191.62996	37.008232	-1516.8584	214.65573	35.386227	-1538.5055	329.17737	1012.4152	-740.36163	280.29675	1022.3345	-742.04297	291.57684	1082.9092	-741.83032	224.46831	711.62604	-684.91736	168.80612	698.97333	-1171.254	170.00566	703.81384	-1234.1459	245.38171	1103.5184	-1196.7506	237.07253	1043.1976	-1209.3077	294.26257	1097.2484	-1201.2211
1293	6.455	169.23271	622.18335	-1170.1576	131.95604	1499.9836	-964.19989	147.92679	1483.4352	-903.66492	176.00768	1473.1868	-1034.9686	198.57613	642.09418	-2063.8076	234.0881	616.76117	156.33879	427.16373	850.73132	-1012.9761	428.94626	854.56146	-939.60577				425.26978	864.45966	-976.84052	316.32272	520.99017	-687.03802	338.05847	1299.7614	-964.42822	206.25224	1211.5969	-963.01886	408.10486	1035.7678	-975.9353	214.87968	1228.5496	-1127.5275	254.24432	1229.1127	-790.10962	351.86316	569.12323	-720.82935	356.77097	502.42352	-712.49396	325.34091	238.23853	-558.1189	364.42825	218.52386	-582.84033	334.2793	174.74214	-543.95471	272.15826	62.437038	-555.07709	328.02588	70.158401	-511.37894	337.43198	29.721584	-555.81128	184.79623	44.463097	-429.58426	251.11824	26.947407	-383.83191	205.44939	39.895187	-400.69373	352.87982	567.67194	-1212.7343	317.32413	522.16034	-1244.3873	359.81638	503.82422	-1222.689	332.23004	268.04315	-1356.9507	338.21378	206.25217	-1370.786	370.67163	247.57561	-1333.5326	323.30615	68.406052	-1416.2828	253.74738	64.701981	-1385.5784	326.98648	28.739334	-1370.2145	252.98363	27.744019	-1546.5728	191.86737	36.853092	-1516.9246	214.66702	35.38364	-1538.5308	331.54285	1012.6086	-740.67871	282.38834	1022.6774	-742.61346	294.17151	1083.2434	-741.89905	225.15585	712.33453	-685.26794	169.01257	700.11407	-1171.4348	170.19348	704.83728	-1234.3071	248.11972	1104.2698	-1197.1051	239.47801	1043.9325	-1209.6829	296.99365	1097.5796	-1201.1428
1294	6.46	168.86754	623.21484	-1170.1759	134.03252	1499.5542	-964.54639	149.96722	1483.2791	-903.94257	178.18594	1473.1831	-1035.2791	198.72316	642.9939	-2063.9109	233.84586	617.12659	156.2784	426.3501	850.35071	-1012.7205	427.81635	854.16779	-939.35498				424.32047	864.33453	-976.49951	315.28815	521.57434	-687.27008	340.79352	1300.0475	-964.42395	208.40382	1212.6044	-963.20721	408.38727	1035.1104	-975.75275	217.67944	1229.6316	-1127.9458	257.16592	1229.1853	-790.42792	350.50833	568.83075	-720.27509	355.02374	503.61584	-711.99878	324.29803	238.47852	-557.85114	363.66739	219.03287	-582.39282	333.69373	174.98148	-543.67798	272.0672	62.490688	-555.08234	327.90652	70.185654	-511.38068	337.38947	29.760771	-555.81061	184.76111	44.459576	-429.58823	251.1799	26.457518	-384.15079	205.38899	39.904221	-400.685	351.90616	568.15259	-1212.3893	316.92746	522.51562	-1244.2769	359.29935	504.319	-1222.5554	332.14676	268.71521	-1357.2908	337.97568	206.41502	-1370.6953	370.34372	247.83644	-1333.434	323.25952	68.397285	-1416.2948	253.76404	64.719704	-1385.5713	326.96463	28.722979	-1370.1863	252.9957	27.734167	-1546.5839	191.88649	36.833385	-1516.9379	214.6712	35.355728	-1538.5563	333.87027	1012.7952	-740.96838	284.95459	1022.98	-742.1684	296.65109	1083.5137	-742.01514	228.75612	712.13934	-685.62262	169.15471	701.16595	-1171.5601	170.36713	705.84143	-1234.4458	250.73904	1104.9144	-1197.4209	241.75864	1044.7094	-1209.996	299.64056	1097.8733	-1201.0328
1295	6.465	168.55441	624.23688	-1170.2747	135.94965	1499.3506	-964.79425	151.9415	1483.1948	-904.23145	180.37158	1473.0354	-1035.6638	198.00438	643.75183	-2064.1182	233.6194	617.45374	156.21577	425.57849	850.06995	-1012.4328	426.87311	853.82996	-939.09534				423.24243	864.09058	-976.24988	313.75317	522.39978	-686.26331	343.51022	1299.8467	-964.59857	210.37306	1213.6132	-963.31293	408.79025	1034.3408	-975.61218	220.40596	1230.509	-1128.3458	259.41	1229.9042	-790.28992	349.52884	568.10065	-720.14575	353.69522	503.93884	-711.55261	323.76065	239.27248	-557.16595	363.0257	219.4379	-581.93231	333.03192	175.21419	-543.39221	271.97879	62.445644	-555.09436	327.79169	70.256767	-511.35468	337.39816	29.784647	-555.81219	184.74144	44.442833	-429.58801	251.09059	26.973936	-383.80188	205.36346	39.918602	-400.67084	351.49387	568.33789	-1212.0653	316.43353	522.72205	-1244.1729	358.82013	504.22055	-1222.2332	331.85904	268.87717	-1357.2316	337.79736	206.53482	-1370.6288	370.08356	247.99785	-1333.302	323.26245	68.488686	-1416.1896	253.70422	64.729286	-1385.5828	326.95279	28.737585	-1370.1847	253.00116	27.732569	-1546.594	191.73622	36.932205	-1516.9135	214.69565	35.348927	-1538.571	336.09567	1012.8709	-741.3299	287.17221	1023.2148	-742.36926	299.04462	1083.7277	-742.17957	230.48048	712.43091	-685.97955	169.45816	702.19513	-1171.6471	170.79153	706.83514	-1234.5089	253.23386	1105.5017	-1197.657	243.91913	1045.5045	-1210.201	302.02612	1098.3188	-1200.8728
